<svg width="200" height="200" viewBox="0 0 200 200" fill="none" xmlns="http://www.w3.org/2000/svg">
<g clip-path="url(#clip0_309_491)">
<path d="M161.333 158.667C166.222 168 168.667 202 168.667 202H31.3333C31.3333 202 33.7779 168 38.6666 158.667C45.9999 144.667 99.9999 126.667 99.9999 126.667C99.9999 126.667 154 144.667 161.333 158.667Z" fill="url(#paint0_linear_309_491)"/>
<path d="M100.022 138.65C104.84 138.432 116 136.072 116 130.973V126.667C117.223 126.667 120.723 129.555 122.524 132C129.641 141.667 121.747 150.333 115.308 150.333C107.184 150.333 101.8 143.545 99.9999 140.28C98.1999 143.547 92.8159 150.333 84.6919 150.333C78.2532 150.333 70.3585 141.667 77.4759 132C79.2765 129.555 82.7772 126.667 83.9999 126.667V130.973C83.9999 136.072 95.4612 138.432 100.022 138.65Z" fill="white"/>
</g>
<defs>
<linearGradient id="paint0_linear_309_491" x1="99.9999" y1="202" x2="99.9999" y2="126.667" gradientUnits="userSpaceOnUse">
<stop stop-color="#FFC9B3"/>
<stop offset="1" stop-color="#FFD2C2"/>
</linearGradient>
<clipPath id="clip0_309_491">
<rect width="200" height="200" fill="white"/>
</clipPath>
</defs>
</svg>
