<svg width="200" height="200" viewBox="0 0 200 200" fill="none" xmlns="http://www.w3.org/2000/svg"><rect width="200" height="200" fill="#FFC9B3"/><path d="M114.667 108.667C100.345 115.547 98.2553 115.179 66.6666 89.3332C19 50.3332 64 14.6666 112.333 33.6666C164.667 56.6666 147.134 93.0712 114.667 108.667Z" fill="#1D0024"/><path d="M78.4879 137.878C78.4879 137.878 79.4939 130.933 81.8526 130.339C84.2113 129.744 97.9966 129.672 98.0086 132.339C98.0086 132.828 98.4833 138.072 100.055 138.072C101.627 138.072 102.031 132.825 102.034 132.339C102.047 129.672 115.752 129.775 118.19 130.339C120.628 130.903 121.545 137.887 121.545 137.887C121.545 137.887 157.545 154.838 161.333 162.074C164.592 168.296 167.037 182.741 168.667 205.407H31.3333C32.963 182.741 35.4075 168.296 38.6666 162.074C42.4553 154.841 78.4879 137.878 78.4879 137.878Z" fill="#FCF2EB"/><path d="M116 134.667C116 134.667 107.489 139.333 99.66 139.333C91.8307 139.333 84 134.667 84 134.667V120C82.3157 120.266 80.6094 120.368 78.9054 120.303C62.9134 120.301 56.8834 97.0073 60 68.6667C62 68.6667 66.6667 68.6667 73.3334 59.3333C71.6667 72.3333 91 70.3333 98.3334 60C94.6667 72.3333 104.333 80.6667 112.667 75.6667C129.007 65.862 132.681 95.7507 116 96V134.667Z" fill="#FFB597"/></svg>