<svg width="200" height="200" viewBox="0 0 200 200" fill="none" xmlns="http://www.w3.org/2000/svg"><rect width="200" height="200" fill="#806A6A"/><path d="M148.333 106.333C153.741 88.3727 157.075 57.6667 134.333 36.6667C116.953 20.6173 69.9999 19 53.6666 54C50.9399 59.8427 54.6666 69 61.9999 68.6667C64.8819 68.5333 66.6666 77.6667 68.3333 83.3333C65.9999 106.333 45.2119 106.758 34.6666 124.333C21.6666 146 37.6666 178 75.9999 178C114.333 178 136.308 146.27 148.333 106.333Z" fill="black"/><path d="M161.333 158.667C166.222 168 168.667 202 168.667 202H31.3333C31.3333 202 33.7779 168 38.6666 158.667C45.9999 144.667 99.9999 126.667 99.9999 126.667C99.9999 126.667 154 144.667 161.333 158.667Z" fill="#E67240"/><path d="M116 134.667C116 134.667 107.489 139.333 99.66 139.333C91.8307 139.333 84 134.667 84 134.667V120C82.3157 120.266 80.6094 120.368 78.9054 120.303C62.9134 120.301 56.8834 97.0073 60 68.6667C62 68.6667 66.6667 68.6667 73.3334 59.3333C71.6667 72.3333 91 70.3333 98.3334 60C94.6667 72.3333 104.333 80.6667 112.667 75.6667C129.007 65.862 132.681 95.7507 116 96V134.667Z" fill="#FFB597"/></svg>