<svg width="200" height="200" viewBox="0 0 200 200" fill="none" xmlns="http://www.w3.org/2000/svg"><rect width="200" height="200" fill="#D6A2E2"/><path d="M114.667 108.667C100.345 115.547 98.2553 115.179 66.6666 89.3332C19 50.3332 64 14.6666 112.333 33.6666C164.667 56.6666 147.134 93.0712 114.667 108.667Z" fill="#1D0024"/><path d="M107.243 35.1333C104.576 23.4666 117.221 14.5139 130.243 20.6599C160.909 35.1333 142.667 55.3333 131.333 53.9999C120 52.6666 109.909 46.7999 107.243 35.1333Z" fill="#1D0024"/><path d="M161.333 162C166.222 171.333 168.667 205.333 168.667 205.333H31.3333C31.3333 205.333 33.7779 171.333 38.6666 162C45.9999 148 99.9999 130 99.9999 130C99.9999 130 154 148 161.333 162Z" fill="#050220"/><path d="M116 134.667C116 134.667 107.489 139.333 99.66 139.333C91.8307 139.333 84 134.667 84 134.667V120C82.3157 120.266 80.6094 120.368 78.9054 120.303C62.9134 120.301 56.8834 97.0073 60 68.6667C62 68.6667 66.6667 68.6667 73.3334 59.3333C71.6667 72.3333 91 70.3333 98.3334 60C94.6667 72.3333 104.333 80.6667 112.667 75.6667C129.007 65.862 132.681 95.7507 116 96V134.667Z" fill="#FFB597"/></svg>